<svg xmlns="http://www.w3.org/2000/svg" version="1.1" style="display: block;" preserveAspectRatio="none" viewBox="1.35 640.94 1846.11 430.26">
<path transform="translate(0,0)" fill="rgb(0,0,0)" d="M 1136.69 779.13 L 1139.62 779.555 L 1140.94 781.535 C 1140.95 789.98 1107.99 834.57 1100.96 843.431 C 1081.2 868.381 1044.41 906.334 1012.72 914.304 C 1001.32 917.172 983.495 919.816 971.671 919.903 C 919.97 920.283 867.968 920.044 816.274 920.045 L 508.178 920.065 L 333.429 920.129 C 311.178 920.227 288.926 920.013 266.681 919.485 C 228.896 918.556 209.46 916.018 175.205 899.663 C 162.428 893.563 120.25 860.508 111.513 864.415 C 86.828 875.452 107.579 956.13 111.611 973.005 C 110.843 974.686 109.991 976.326 109.058 977.921 C 105.69 983.634 83.6814 1012.78 79.1555 1012.77 C 68.2293 1012.75 55.3064 952.329 47.5805 947.715 L 46.1083 948.855 C 43.1036 960.22 59.6709 1016.11 63.1149 1031.77 C 64.3022 1035.71 63.0663 1040.43 60.2065 1043.05 C 55.6531 1047.22 38.3054 1073.99 31.3907 1070.97 C 24.7787 1060.02 20.308 1035.75 17.1602 1022.75 C 4.98468 972.448 -11.6138 906.776 17.8122 859.429 C 27.5758 843.719 60.0508 803.849 74.5762 794.143 C 83.12 788.433 92.9526 785.349 103.144 784.422 C 151.224 780.049 227.692 832.543 285.931 837.881 C 306.304 839.748 326.922 839.181 347.364 839.183 L 436.214 839.152 L 721.499 839.139 L 913.512 839.167 L 968.48 839.206 C 1011.02 839.221 1042.83 836.999 1075.21 805.472 C 1096.56 784.684 1109.53 785.508 1136.69 779.13 z"/>
<path transform="translate(0,0)" fill="rgb(187,103,34)" d="M 1127.33 789.229 L 1128.43 789.418 C 1128.36 791.222 1128.69 790.685 1127.71 792.211 C 1101.6 832.876 1056.79 894.638 1008.25 907.847 C 985.439 914.053 945.587 913.07 922.078 913.063 L 841.755 913.038 L 563.735 913.001 L 353.62 913.089 C 326.488 913.237 299.355 912.986 272.23 912.335 C 260.785 912.037 238.997 911.892 228.22 909.803 C 207.033 905.066 188.462 898.576 169.249 887.864 C 156.042 880.517 123.752 851.731 108.102 857.646 C 77.9648 869.037 99.4708 954.715 104.458 971.475 C 96.4112 982.357 88.152 993.082 79.6856 1003.64 C 72.4032 989.745 58.368 942.997 51.1368 939.017 C 23.2259 923.657 49.5578 1006.33 50.5674 1010.25 C 52.9947 1018.63 54.6272 1027.08 56.4103 1035.62 C 51.443 1043.2 41.7063 1053.51 35.3576 1060.57 C 26.9158 1036.57 21.8372 1010.57 16.4819 985.705 C 8.31744 947.8 2.0173 897.262 24.6221 862.687 C 33.2691 849.461 67.8481 807.081 80.1132 799.183 C 87.1977 794.62 95.7023 792.546 104.032 791.927 C 143.422 788.997 208.008 825.409 248.059 837.788 C 261.572 841.921 275.512 844.504 289.609 845.487 C 305.01 846.668 327.474 846.02 343.335 846.025 L 438.593 846.05 L 738.853 846.038 L 924.415 846.1 C 977.38 846.128 1035.57 854.428 1076.83 814.103 C 1096.25 795.13 1102.12 794.424 1127.33 789.229 z"/>
<path transform="translate(0,0)" fill="rgb(0,0,0)" d="M 1701.06 641.055 C 1720.29 639.2 1751.44 661.236 1766.38 671.912 C 1806.29 700.437 1836.88 743.264 1844.98 792.314 C 1847.44 807.207 1848.96 887.55 1845.16 899.63 C 1841.88 910.042 1834.09 918.459 1827.85 927.194 C 1827.15 935.217 1827.31 938.376 1827.88 946.255 C 1845.56 965.013 1847.79 970.331 1846.94 996.47 C 1846.39 1013.15 1851.15 1036.89 1826.4 1037.87 C 1799.17 1038.95 1769.18 1038.19 1741.85 1037.66 C 1724.54 1037.32 1723.32 1011.76 1724.14 999.56 C 1724.63 990.932 1722.77 974.821 1726.85 967.367 C 1734.27 953.782 1747.57 943.206 1741.08 925.718 C 1731.72 902.009 1713.98 915.512 1698.41 891.751 C 1672.3 891.681 1645.27 893.671 1619.12 894.548 C 1548.22 896.925 1476.68 903.217 1405.96 906.176 L 1264.62 914.768 L 1217 917.954 C 1209.13 918.481 1193.95 919.862 1186.42 919.18 C 1147.77 915.68 1161.09 852.479 1159.57 826.759 C 1159.1 818.723 1167.07 799.444 1175.13 798.205 C 1203.59 793.83 1237.16 796.945 1266.27 797.828 L 1510.48 804.439 C 1558.69 805.946 1606.64 808.087 1654.83 806.05 C 1667.3 805.523 1682.05 805.781 1694.4 804.364 C 1701.23 803.581 1708.48 790.955 1717.06 789.131 C 1726.64 787.093 1738.8 789.822 1746.49 783.272 C 1750.96 779.468 1752.51 769.956 1752.01 764.129 C 1749.61 735.753 1733.29 708.627 1716.59 686.353 C 1710.27 677.62 1702.63 669.577 1696.92 660.425 C 1691.64 651.957 1694.36 646.648 1701.06 641.055 z"/>
<path transform="translate(0,0)" fill="rgb(187,103,34)" d="M 1704.29 647.465 C 1737.32 655.132 1787.93 693.179 1806.91 721.788 C 1822.82 745.775 1837.23 774.041 1839.12 803.497 C 1840.14 819.461 1839.11 838.272 1839.36 854.666 C 1839.54 866.501 1840.19 887.998 1838.11 898.41 C 1835.99 909.02 1821.32 917.496 1819.94 931.904 C 1817.99 952.196 1823.95 951.827 1835.04 965.208 C 1842.34 974.022 1839.07 1009.06 1839.04 1021.29 C 1839.04 1023.23 1837.82 1025.9 1835.77 1027.11 C 1833.04 1028.74 1826.7 1030.59 1823.45 1030.64 C 1797.33 1031 1768.95 1032.22 1743.06 1029.88 C 1740.34 1029.64 1735.69 1027.75 1734.53 1025.42 C 1730.43 1015.78 1729.99 979.072 1734.1 970.595 C 1742.57 953.105 1755.93 945.802 1747.89 922.828 C 1740.68 902.195 1725.63 904.681 1709.47 894.803 C 1707.11 893.363 1703.42 886.958 1701.87 884.345 C 1670.75 884.148 1632.56 886.703 1601.06 888.269 L 1402.75 899.102 L 1273.17 906.888 C 1246.13 908.708 1207.43 912.849 1181.11 910.837 C 1160.56 909.266 1162.43 819.254 1173.92 808.094 C 1181.94 800.308 1213.01 803.471 1225.66 803.869 L 1291.8 805.797 L 1531.78 812.497 C 1585.92 814.071 1640.81 814.963 1695.04 812.007 C 1702.93 812.749 1711.84 797.558 1717.42 796.854 C 1739.53 794.064 1759.94 796.656 1759.41 765.749 C 1758.91 737.158 1739.83 705.158 1723.28 682.449 C 1717.01 673.834 1707.59 664.9 1702.66 655.225 C 1701.37 652.746 1703.29 649.719 1704.29 647.465 z"/>
</svg>