<svg width="1289" height="832" viewBox="0 0 1289 832" fill="none" xmlns="http://www.w3.org/2000/svg">
<path d="M722.426 490.345L724.271 490.613L725.101 491.859C725.108 497.173 704.363 525.236 699.938 530.813C687.501 546.515 664.346 570.401 644.4 575.417C637.225 577.222 626.006 578.886 618.564 578.94C586.024 579.18 553.294 579.029 520.758 579.03L326.844 579.042L216.858 579.083C202.854 579.144 188.848 579.01 174.848 578.677C151.066 578.093 138.833 576.495 117.273 566.202C109.231 562.363 82.6847 541.56 77.1857 544.019C61.6491 550.965 74.7096 601.74 77.2474 612.36C76.764 613.418 76.2277 614.45 75.6405 615.454C73.5207 619.05 59.6686 637.393 56.82 637.386C49.9431 637.374 41.8095 599.348 36.9469 596.444L36.0203 597.161C34.1292 604.314 44.5565 639.488 46.7242 649.344C47.4715 651.824 46.6936 654.794 44.8936 656.443C42.0278 659.067 31.1092 675.915 26.7571 674.014C22.5956 667.123 19.7817 651.849 17.8005 643.667C10.1373 612.01 -0.309662 570.679 18.2109 540.881C24.3561 530.994 44.7956 505.902 53.9379 499.793C59.3153 496.2 65.5039 494.259 71.9183 493.676C102.18 490.923 150.308 523.96 186.963 527.32C199.786 528.495 212.763 528.138 225.629 528.139L281.551 528.12L461.108 528.112L581.959 528.129L616.556 528.154C643.33 528.163 663.351 526.765 683.731 506.923C697.169 493.84 705.332 494.359 722.426 490.345Z" fill="black"/>
<path d="M716.535 496.701L717.228 496.82C717.184 497.955 717.391 497.617 716.774 498.578C700.341 524.17 672.138 563.04 641.587 571.353C627.23 575.259 602.147 574.64 587.351 574.636L536.796 574.62L361.812 574.597L229.566 574.652C212.49 574.745 195.412 574.587 178.34 574.178C171.137 573.99 157.423 573.899 150.64 572.584C137.305 569.603 125.617 565.518 113.524 558.777C105.212 554.153 84.8888 536.036 75.0388 539.759C56.0706 546.928 69.6064 600.849 72.7453 611.397C67.6807 618.246 62.4824 624.996 57.1537 631.64C52.5702 622.896 43.7365 593.475 39.1852 590.97C21.6182 581.303 38.1914 633.333 38.8268 635.8C40.3546 641.074 41.3821 646.392 42.5043 651.767C39.3779 656.537 33.2497 663.026 29.2539 667.469C23.9406 652.365 20.7442 636.002 17.3736 620.353C12.2349 596.497 8.26967 564.691 22.497 542.932C27.9394 534.608 49.7032 507.936 57.4228 502.965C61.8817 500.094 67.2345 498.788 72.4772 498.399C97.269 496.555 137.919 519.471 163.127 527.261C171.632 529.863 180.406 531.488 189.278 532.107C198.972 532.85 213.11 532.442 223.093 532.445L283.048 532.461L472.03 532.454L588.822 532.493C622.158 532.51 658.782 537.734 684.751 512.355C696.974 500.415 700.668 499.97 716.535 496.701Z" fill="#BB6722"/>
<path d="M1104.46 404.069C1116.56 402.902 1136.17 416.77 1145.57 423.489C1170.69 441.441 1189.94 468.395 1195.04 499.264C1196.59 508.637 1197.55 559.201 1195.16 566.803C1193.09 573.356 1188.19 578.653 1184.26 584.151C1183.82 589.2 1183.92 591.188 1184.28 596.147C1195.41 607.952 1196.81 611.299 1196.28 627.75C1195.93 638.247 1198.93 653.188 1183.35 653.805C1166.21 654.484 1147.33 654.006 1130.13 653.673C1119.24 653.459 1118.47 637.372 1118.99 629.694C1119.29 624.264 1118.12 614.125 1120.69 609.434C1125.36 600.884 1133.73 594.228 1129.65 583.222C1123.76 568.301 1112.59 576.799 1102.79 561.845C1086.36 561.801 1069.35 563.053 1052.89 563.605C1008.26 565.101 963.236 569.061 918.725 570.923L829.767 576.33L799.795 578.336C794.842 578.667 785.287 579.536 780.548 579.107C756.222 576.904 764.605 537.129 763.649 520.942C763.353 515.885 768.369 503.751 773.442 502.972C791.355 500.218 812.483 502.179 830.805 502.734L984.51 506.895C1014.85 507.843 1045.03 509.191 1075.36 507.909C1083.21 507.577 1092.49 507.74 1100.27 506.848C1104.57 506.355 1109.13 498.409 1114.53 497.261C1120.56 495.978 1128.21 497.696 1133.05 493.574C1135.87 491.179 1136.84 485.193 1136.53 481.526C1135.02 463.667 1124.74 446.596 1114.23 432.578C1110.26 427.082 1105.45 422.02 1101.85 416.26C1098.53 410.931 1100.24 407.589 1104.46 404.069Z" fill="black"/>
<path d="M1106.49 408.103C1127.28 412.929 1159.14 436.874 1171.08 454.879C1181.09 469.975 1190.16 487.764 1191.35 506.302C1192 516.349 1191.35 528.188 1191.51 538.505C1191.62 545.954 1192.03 559.483 1190.72 566.036C1189.38 572.713 1180.15 578.047 1179.28 587.115C1178.05 599.886 1181.81 599.654 1188.79 608.075C1193.38 613.622 1191.32 635.673 1191.3 643.37C1191.3 644.591 1190.54 646.271 1189.25 647.033C1187.53 648.059 1183.54 649.223 1181.49 649.254C1165.05 649.481 1147.19 650.249 1130.89 648.776C1129.18 648.625 1126.26 647.436 1125.53 645.969C1122.95 639.902 1122.67 616.8 1125.26 611.465C1130.59 600.458 1138.99 595.862 1133.93 581.403C1129.4 568.418 1119.92 569.982 1109.75 563.765C1108.27 562.859 1105.95 558.828 1104.97 557.184C1085.38 557.06 1061.35 558.668 1041.52 559.653L916.705 566.471L835.148 571.371C818.129 572.517 793.772 575.123 777.206 573.856C764.272 572.868 765.449 516.219 772.681 509.195C777.729 504.295 797.284 506.286 805.246 506.536L846.874 507.75L997.916 511.966C1031.99 512.957 1066.54 513.518 1100.67 511.658C1105.64 512.125 1111.24 502.564 1114.76 502.121C1128.67 500.365 1141.52 501.997 1141.19 482.545C1140.87 464.552 1128.86 444.413 1118.45 430.121C1114.5 424.699 1108.57 419.076 1105.47 412.987C1104.65 411.427 1105.86 409.522 1106.49 408.103Z" fill="#BB6722"/>
<path d="M144.446 135.711C168.126 134.053 191.744 134.993 214.704 141.783C305.721 168.7 319.27 296.528 232.075 339.973C240.3 355.29 305.209 464.526 304.987 469.342C300.747 471.167 281.841 470.462 276.201 470.425L240.623 470.407C234.89 462.203 224.251 440.711 218.902 430.621L177.949 353.227C167.864 353.314 154.367 353.706 144.519 352.993C143.687 344.192 144.068 314.284 144.558 305.129C165.328 304.134 190.373 308.455 207.98 295.355C237.986 273.028 237.437 209.071 202.019 191.412C181.483 181.173 165.769 187.187 145.405 183.841C143.362 181.145 144.03 141.478 144.446 135.711Z" fill="black"/>
<path d="M148.867 140.239C170.376 140.119 185.524 139.061 206.696 144.393C265.428 159.182 298.231 215.391 281.95 274.202C276.053 295.735 262.84 314.544 244.58 327.393C238.851 331.359 231.933 334.873 225.775 338.355C232.008 350.415 239.827 362.465 246.401 374.375C263.109 404.639 282.388 435.241 298.562 465.647L272.108 465.711L242.819 465.682C240.839 461.747 238.688 457.633 236.564 453.776C217.459 419.082 199.956 383.016 180.656 348.483L148.909 348.467C148.963 335.536 148.928 322.604 148.804 309.674C171.599 309.443 199.116 312.498 216.63 294.411C239.765 270.519 240.257 219.59 216.419 195.878C198.509 178.063 171.977 179.892 148.887 180.126L148.867 140.239Z" fill="#506E24"/>
<path d="M608.939 131.776C611.078 131.431 615.694 131.351 618.037 131.241C618.655 136.927 618.403 146.285 618.391 152.204C618.423 163.15 618.347 174.096 618.163 185.04C606.192 186.985 597.791 188.8 587.427 195.916C566.126 210.541 554.566 238.786 550.456 263.587C543.795 303.769 544.832 357.172 569.089 391.956C582.283 410.876 595.987 418.121 618.142 422.022C618.917 434.145 618.817 462.207 618.126 474.443C600.329 473.709 591.77 472.169 575.034 466.431C562.405 461.455 550.578 454.646 539.932 446.225C505.263 418.505 489.877 376.539 484.814 333.475C474.481 245.587 507.61 142.477 608.939 131.776Z" fill="black"/>
<path d="M612.907 136.257C612.934 136.277 612.965 136.293 612.987 136.319C614.37 137.991 613.643 175.848 613.639 181.025C567.391 186.856 547.967 235.212 544.004 276.026C539.557 321.83 542.654 379.185 580.572 411.342C590.223 419.527 601.142 424.26 613.659 425.738L613.633 469.614C597.726 468.871 585.848 465.696 571.332 459.734C517.157 435.468 493.192 382.879 488.805 326.024C484.925 275.758 492.659 219.827 526.259 180.098C548.381 153.94 578.887 138.926 612.907 136.257Z" fill="#506E24"/>
<path d="M924.254 137.375C942.242 136.587 966.719 137.283 985.192 137.3C992.826 157.162 1000.34 181.107 1007.42 201.593L1048.88 321.55L1084.03 423.175C1089.09 437.841 1094.11 452.607 1099.29 467.241C1100.13 469.582 1099.92 469.979 1099.31 472.006C1082.55 472.805 1053.07 472.255 1036.04 471.911C1028.01 451.048 1020.26 426.781 1013.04 405.545L975.638 295.481L942.67 196.994C936.634 179.024 930.453 160.866 924.613 142.818C923.996 140.911 923.788 139.363 924.254 137.375Z" fill="black"/>
<path d="M929.629 142.012C945.773 141.415 965.41 141.952 981.818 141.862L1053.5 349.607L1081.38 430.376C1085.37 442.038 1090.72 455.663 1094.13 467.271L1039.38 467.336C1029.65 440.907 1020.33 412.317 1011.21 385.542L965.234 249.265L944.029 186.161C940.134 174.821 932.442 153.469 929.629 142.012Z" fill="#506E24"/>
<path d="M354.666 137.237C371.778 136.23 399.646 136.89 417.436 137.129C417.856 160.964 417.45 186.136 417.446 210.095L417.426 354.829L417.451 432.01C417.455 442.389 418.063 462.478 417.083 471.898C399.431 472.536 372.252 472.264 354.602 471.837C353.662 453.633 354.441 428.479 354.442 409.815L354.443 289.23L354.449 188.804C354.446 173.852 353.652 151.493 354.666 137.237Z" fill="black"/>
<path d="M359.229 141.879C376.823 141.445 395.264 141.711 412.92 141.706L412.932 354.785C412.935 391.762 413.605 430.467 412.843 467.216L359.056 467.262C359.58 442.645 359.023 415.755 359.036 390.913L359.027 226.746C359.024 199.964 358.188 168.279 359.229 141.879Z" fill="#506E24"/>
<path d="M48.3727 135.429C66.4572 134.767 91.7224 134.943 109.904 135.471C110.77 160.147 110.133 188.149 110.13 213.136L110.101 356.939L110.126 433.428C110.13 441.498 110.694 463.37 109.785 470.081C92.382 471.024 66.3496 470.294 48.2934 470.158C47.6926 453.462 48.2013 433.285 48.1967 416.387L48.192 311.579L48.1942 198.936C48.1898 178.401 47.7491 155.837 48.3727 135.429Z" fill="black"/>
<path d="M52.6772 139.951L105.562 139.921C105.094 177.32 105.529 215.671 105.538 253.124L105.572 465.484L52.6999 465.424L52.6772 139.951Z" fill="#506E24"/>
<path d="M890.376 154C891.031 154.12 893.277 154.625 893.529 155.385C903.562 185.387 913.884 215.47 923.533 245.594L877.87 376.084C867.542 405.968 857.087 437.552 846.142 467.13C837.362 467.597 824.157 467.141 815.037 467.119C808.479 467.135 786.299 467.937 782.001 465.787C781.875 461.248 802.966 403.376 806.037 394.577L860.914 237.413L878.713 186.568C882.351 176.1 886.197 164.067 890.376 154Z" fill="black"/>
<path d="M891.289 165.659C893.158 167.59 915.772 237.166 918.522 245.363C915.061 254.835 911.7 264.434 908.446 273.981C886.996 336.861 863.998 399.438 842.907 462.421L815.667 462.404L787.608 462.443C790.705 451.729 795.935 438.122 799.731 427.305L820.79 366.786L891.289 165.659Z" fill="#506E24"/>
<path d="M653.226 131C658.036 131.215 663.014 131.634 667.785 131.892C693.162 133.265 731.373 151.288 747.51 171.062C742.872 176.542 732.26 185.633 726.627 190.718C720.95 196.082 710.156 206.633 704.284 210.883C686 192.755 678.812 187.689 652.407 184.514C651.987 178.315 651.481 133.825 653.226 131Z" fill="black"/>
<path d="M656.997 135.847C691.085 138.466 715.512 147.354 741.109 171.064C735.841 175.375 729.018 181.981 723.82 186.745C717.387 192.684 711.03 198.704 704.749 204.802C690.701 190.577 678.044 181.962 657.104 180.415C656.839 165.752 657.016 150.552 656.997 135.847Z" fill="#506E24"/>
<path d="M707.539 395C710.95 395.165 727.579 411.108 731.078 414.188C737.592 419.92 745.567 426.842 751.609 433.059C740.393 448.54 715.287 462.194 697.538 468.351C683.502 472.699 671.776 474.401 657.226 473.847C656.95 457.159 656.856 437.999 657.358 421.384C682.01 419.025 690.929 411.637 707.539 395Z" fill="black"/>
<path d="M708.35 400.758C711.453 402.793 719.692 410.45 722.682 413.108C730.178 419.771 738.152 426.596 745.327 433.557C728.623 449.401 715.161 457.35 693.453 464.612C680.638 468.083 674.999 469.051 661.826 469.462L661.763 425.651C682.438 423.876 694.504 414.877 708.35 400.758Z" fill="#506E24"/>
<path d="M910.215 359.289C930.783 358.64 954.939 359.284 975.798 359.304C978.107 365.145 989.902 398.394 989.984 402.765C987.542 404.857 979.58 404.179 976.144 404.117C951.654 404.147 927.089 404.248 902.605 404.082C900.107 404.065 897.576 404.24 896.003 402.588C895.783 398.405 907.943 365.408 910.215 359.289Z" fill="black"/>
<path d="M925.767 364.034C941.168 363.77 957.048 363.941 972.487 363.919C976.421 375.844 980.499 387.724 984.704 399.556L959.931 399.556L901.397 399.502C905.356 387.673 909.384 375.868 913.481 364.088L925.767 364.034Z" fill="#506E24"/>
</svg>
