<svg width="1289" height="832" viewBox="0 0 1289 832" fill="none" xmlns="http://www.w3.org/2000/svg">
<path d="M716.535 498.701L717.228 498.82C717.184 499.955 717.391 499.617 716.774 500.578C700.341 526.17 672.138 565.04 641.587 573.353C627.23 577.259 602.147 576.64 587.351 576.636L536.796 576.62L361.812 576.597L229.566 576.652C212.49 576.745 195.412 576.587 178.34 576.178C171.137 575.99 157.423 575.899 150.64 574.584C137.305 571.603 125.617 567.518 113.524 560.777C105.212 556.153 84.8888 538.036 75.0388 541.759C56.0706 548.928 69.6064 602.849 72.7453 613.397C67.6807 620.246 62.4824 626.996 57.1537 633.64C52.5702 624.896 43.7365 595.475 39.1852 592.97C21.6182 583.303 38.1914 635.333 38.8268 637.8C40.3546 643.074 41.3821 648.392 42.5043 653.767C39.3779 658.537 33.2497 665.026 29.2539 669.469C23.9406 654.365 20.7442 638.002 17.3736 622.353C12.2349 598.497 8.26967 566.691 22.497 544.932C27.9394 536.608 49.7032 509.936 57.4228 504.965C61.8817 502.094 67.2345 500.788 72.4772 500.399C97.269 498.555 137.919 521.471 163.127 529.261C171.632 531.863 180.406 533.488 189.278 534.107C198.972 534.85 213.11 534.442 223.093 534.445L283.048 534.461L472.03 534.454L588.822 534.493C622.158 534.51 658.782 539.734 684.751 514.355C696.974 502.415 700.668 501.97 716.535 498.701Z" fill="#BB6722"/>
<path d="M1101.49 410.103C1122.28 414.929 1154.14 438.874 1166.08 456.879C1176.09 471.975 1185.16 489.764 1186.35 508.302C1187 518.349 1186.35 530.188 1186.51 540.505C1186.62 547.954 1187.03 561.483 1185.72 568.036C1184.38 574.713 1175.15 580.047 1174.28 589.115C1173.05 601.886 1176.81 601.654 1183.79 610.075C1188.38 615.622 1186.32 637.673 1186.3 645.37C1186.3 646.591 1185.54 648.271 1184.25 649.033C1182.53 650.059 1178.54 651.223 1176.49 651.254C1160.05 651.481 1142.19 652.249 1125.89 650.776C1124.18 650.625 1121.26 649.436 1120.53 647.969C1117.95 641.902 1117.67 618.8 1120.26 613.465C1125.59 602.458 1133.99 597.862 1128.93 583.403C1124.4 570.418 1114.92 571.982 1104.75 565.765C1103.27 564.859 1100.95 560.828 1099.97 559.184C1080.38 559.06 1056.35 560.668 1036.52 561.653L911.705 568.471L830.148 573.371C813.129 574.517 788.772 577.123 772.206 575.856C759.272 574.868 760.449 518.219 767.681 511.195C772.729 506.295 792.284 508.286 800.246 508.536L841.874 509.75L992.916 513.966C1026.99 514.957 1061.54 515.518 1095.67 513.658C1100.64 514.125 1106.24 504.564 1109.76 504.121C1123.67 502.365 1136.52 503.997 1136.19 484.545C1135.87 466.552 1123.86 446.413 1113.45 432.121C1109.5 426.699 1103.57 421.076 1100.47 414.987C1099.65 413.427 1100.86 411.522 1101.49 410.103Z" fill="#BB6722"/>
<path d="M148.867 140.239C170.376 140.119 185.524 139.061 206.696 144.393C265.428 159.182 298.231 215.391 281.95 274.202C276.053 295.735 262.84 314.544 244.58 327.393C238.851 331.359 231.933 334.873 225.775 338.355C232.008 350.415 239.827 362.465 246.401 374.375C263.109 404.639 282.388 435.241 298.562 465.647L272.108 465.711L242.819 465.682C240.839 461.747 238.688 457.633 236.564 453.776C217.459 419.082 199.956 383.016 180.656 348.483L148.909 348.467C148.963 335.536 148.928 322.604 148.804 309.674C171.599 309.443 199.116 312.498 216.63 294.411C239.765 270.519 240.257 219.59 216.419 195.878C198.509 178.063 171.977 179.892 148.887 180.126L148.867 140.239Z" fill="#506E24"/>
<path d="M612.907 136.257C612.934 136.277 612.965 136.293 612.987 136.319C614.37 137.991 613.643 175.848 613.639 181.025C567.391 186.856 547.967 235.212 544.004 276.026C539.557 321.83 542.654 379.185 580.572 411.342C590.223 419.527 601.142 424.26 613.659 425.738L613.633 469.614C597.726 468.871 585.848 465.696 571.332 459.734C517.157 435.468 493.192 382.879 488.805 326.024C484.925 275.758 492.659 219.827 526.259 180.098C548.381 153.94 578.887 138.926 612.907 136.257Z" fill="#506E24"/>
<path d="M922.629 142.012C938.773 141.415 958.41 141.952 974.818 141.862L1046.5 349.607L1074.38 430.376C1078.37 442.038 1083.72 455.663 1087.13 467.271L1032.38 467.336C1022.65 440.907 1013.33 412.317 1004.21 385.542L958.234 249.265L937.029 186.161C933.134 174.821 925.442 153.469 922.629 142.012Z" fill="#506E24"/>
<path d="M359.229 141.879C376.823 141.445 395.264 141.711 412.92 141.706L412.932 354.785C412.935 391.762 413.605 430.467 412.843 467.216L359.056 467.262C359.58 442.645 359.023 415.755 359.036 390.913L359.027 226.746C359.024 199.964 358.188 168.279 359.229 141.879Z" fill="#506E24"/>
<path d="M60.6772 139.951L113.562 139.921C113.094 177.32 113.529 215.671 113.538 253.124L113.572 465.484L60.6999 465.424L60.6772 139.951Z" fill="#506E24"/>
<path d="M891.289 165.659C893.158 167.59 915.772 237.166 918.522 245.363C915.061 254.835 911.7 264.434 908.446 273.981C886.996 336.861 863.998 399.438 842.907 462.421L815.667 462.404L787.608 462.443C790.705 451.729 795.935 438.122 799.731 427.305L820.79 366.786L891.289 165.659Z" fill="#506E24"/>
<path d="M649.997 135.847C684.085 138.466 708.512 147.354 734.109 171.064C728.841 175.375 722.018 181.981 716.82 186.745C710.387 192.684 704.03 198.704 697.749 204.802C683.701 190.577 671.044 181.962 650.104 180.415C649.839 165.752 650.016 150.552 649.997 135.847Z" fill="#506E24"/>
<path d="M701.35 400.758C704.453 402.793 712.692 410.45 715.682 413.108C723.178 419.771 731.152 426.596 738.327 433.557C721.623 449.401 708.161 457.35 686.453 464.612C673.638 468.083 667.999 469.051 654.826 469.462L654.763 425.651C675.438 423.876 687.504 414.877 701.35 400.758Z" fill="#506E24"/>
<path d="M918.767 364.034C934.168 363.77 950.048 363.941 965.487 363.919C969.421 375.844 973.499 387.724 977.704 399.556L952.931 399.556L894.397 399.502C898.356 387.673 902.384 375.868 906.481 364.088L918.767 364.034Z" fill="#506E24"/>
</svg>
