<svg xmlns="http://www.w3.org/2000/svg" version="1.1" style="display: block;" viewBox="0 0 2048 1322" width="1289" height="832" preserveAspectRatio="none">
<path transform="translate(0,0)" fill="rgb(0,0,0)" d="M 1136.69 779.13 L 1139.62 779.555 L 1140.94 781.535 C 1140.95 789.98 1107.99 834.57 1100.96 843.431 C 1081.2 868.381 1044.41 906.334 1012.72 914.304 C 1001.32 917.172 983.495 919.816 971.671 919.903 C 919.97 920.283 867.968 920.044 816.274 920.045 L 508.178 920.065 L 333.429 920.129 C 311.178 920.227 288.926 920.013 266.681 919.485 C 228.896 918.556 209.46 916.018 175.205 899.663 C 162.428 893.563 120.25 860.508 111.513 864.415 C 86.828 875.452 107.579 956.13 111.611 973.005 C 110.843 974.686 109.991 976.326 109.058 977.921 C 105.69 983.634 83.6814 1012.78 79.1555 1012.77 C 68.2293 1012.75 55.3064 952.329 47.5805 947.715 L 46.1083 948.855 C 43.1036 960.22 59.6709 1016.11 63.1149 1031.77 C 64.3022 1035.71 63.0663 1040.43 60.2065 1043.05 C 55.6531 1047.22 38.3054 1073.99 31.3907 1070.97 C 24.7787 1060.02 20.308 1035.75 17.1602 1022.75 C 4.98468 972.448 -11.6138 906.776 17.8122 859.429 C 27.5758 843.719 60.0508 803.849 74.5762 794.143 C 83.12 788.433 92.9526 785.349 103.144 784.422 C 151.224 780.049 227.692 832.543 285.931 837.881 C 306.304 839.748 326.922 839.181 347.364 839.183 L 436.214 839.152 L 721.499 839.139 L 913.512 839.167 L 968.48 839.206 C 1011.02 839.221 1042.83 836.999 1075.21 805.472 C 1096.56 784.684 1109.53 785.508 1136.69 779.13 z"/>
<path transform="translate(0,0)" fill="rgb(187,103,34)" d="M 1127.33 789.229 L 1128.43 789.418 C 1128.36 791.222 1128.69 790.685 1127.71 792.211 C 1101.6 832.876 1056.79 894.638 1008.25 907.847 C 985.439 914.053 945.587 913.07 922.078 913.063 L 841.755 913.038 L 563.735 913.001 L 353.62 913.089 C 326.488 913.237 299.355 912.986 272.23 912.335 C 260.785 912.037 238.997 911.892 228.22 909.803 C 207.033 905.066 188.462 898.576 169.249 887.864 C 156.042 880.517 123.752 851.731 108.102 857.646 C 77.9648 869.037 99.4708 954.715 104.458 971.475 C 96.4112 982.357 88.152 993.082 79.6856 1003.64 C 72.4032 989.745 58.368 942.997 51.1368 939.017 C 23.2259 923.657 49.5578 1006.33 50.5674 1010.25 C 52.9947 1018.63 54.6272 1027.08 56.4103 1035.62 C 51.443 1043.2 41.7063 1053.51 35.3576 1060.57 C 26.9158 1036.57 21.8372 1010.57 16.4819 985.705 C 8.31744 947.8 2.0173 897.262 24.6221 862.687 C 33.2691 849.461 67.8481 807.081 80.1132 799.183 C 87.1977 794.62 95.7023 792.546 104.032 791.927 C 143.422 788.997 208.008 825.409 248.059 837.788 C 261.572 841.921 275.512 844.504 289.609 845.487 C 305.01 846.668 327.474 846.02 343.335 846.025 L 438.593 846.05 L 738.853 846.038 L 924.415 846.1 C 977.38 846.128 1035.57 854.428 1076.83 814.103 C 1096.25 795.13 1102.12 794.424 1127.33 789.229 z"/>
<path transform="translate(0,0)" fill="rgb(0,0,0)" d="M 1701.06 641.055 C 1720.29 639.2 1751.44 661.236 1766.38 671.912 C 1806.29 700.437 1836.88 743.264 1844.98 792.314 C 1847.44 807.207 1848.96 887.55 1845.16 899.63 C 1841.88 910.042 1834.09 918.459 1827.85 927.194 C 1827.15 935.217 1827.31 938.376 1827.88 946.255 C 1845.56 965.013 1847.79 970.331 1846.94 996.47 C 1846.39 1013.15 1851.15 1036.89 1826.4 1037.87 C 1799.17 1038.95 1769.18 1038.19 1741.85 1037.66 C 1724.54 1037.32 1723.32 1011.76 1724.14 999.56 C 1724.63 990.932 1722.77 974.821 1726.85 967.367 C 1734.27 953.782 1747.57 943.206 1741.08 925.718 C 1731.72 902.009 1713.98 915.512 1698.41 891.751 C 1672.3 891.681 1645.27 893.671 1619.12 894.548 C 1548.22 896.925 1476.68 903.217 1405.96 906.176 L 1264.62 914.768 L 1217 917.954 C 1209.13 918.481 1193.95 919.862 1186.42 919.18 C 1147.77 915.68 1161.09 852.479 1159.57 826.759 C 1159.1 818.723 1167.07 799.444 1175.13 798.205 C 1203.59 793.83 1237.16 796.945 1266.27 797.828 L 1510.48 804.439 C 1558.69 805.946 1606.64 808.087 1654.83 806.05 C 1667.3 805.523 1682.05 805.781 1694.4 804.364 C 1701.23 803.581 1708.48 790.955 1717.06 789.131 C 1726.64 787.093 1738.8 789.822 1746.49 783.272 C 1750.96 779.468 1752.51 769.956 1752.01 764.129 C 1749.61 735.753 1733.29 708.627 1716.59 686.353 C 1710.27 677.62 1702.63 669.577 1696.92 660.425 C 1691.64 651.957 1694.36 646.648 1701.06 641.055 z"/>
<path transform="translate(0,0)" fill="rgb(187,103,34)" d="M 1704.29 647.465 C 1737.32 655.132 1787.93 693.179 1806.91 721.788 C 1822.82 745.775 1837.23 774.041 1839.12 803.497 C 1840.14 819.461 1839.11 838.272 1839.36 854.666 C 1839.54 866.501 1840.19 887.998 1838.11 898.41 C 1835.99 909.02 1821.32 917.496 1819.94 931.904 C 1817.99 952.196 1823.95 951.827 1835.04 965.208 C 1842.34 974.022 1839.07 1009.06 1839.04 1021.29 C 1839.04 1023.23 1837.82 1025.9 1835.77 1027.11 C 1833.04 1028.74 1826.7 1030.59 1823.45 1030.64 C 1797.33 1031 1768.95 1032.22 1743.06 1029.88 C 1740.34 1029.64 1735.69 1027.75 1734.53 1025.42 C 1730.43 1015.78 1729.99 979.072 1734.1 970.595 C 1742.57 953.105 1755.93 945.802 1747.89 922.828 C 1740.68 902.195 1725.63 904.681 1709.47 894.803 C 1707.11 893.363 1703.42 886.958 1701.87 884.345 C 1670.75 884.148 1632.56 886.703 1601.06 888.269 L 1402.75 899.102 L 1273.17 906.888 C 1246.13 908.708 1207.43 912.849 1181.11 910.837 C 1160.56 909.266 1162.43 819.254 1173.92 808.094 C 1181.94 800.308 1213.01 803.471 1225.66 803.869 L 1291.8 805.797 L 1531.78 812.497 C 1585.92 814.071 1640.81 814.963 1695.04 812.007 C 1702.93 812.749 1711.84 797.558 1717.42 796.854 C 1739.53 794.064 1759.94 796.656 1759.41 765.749 C 1758.91 737.158 1739.83 705.158 1723.28 682.449 C 1717.01 673.834 1707.59 664.9 1702.66 655.225 C 1701.37 652.746 1703.29 649.719 1704.29 647.465 z"/>
<path transform="translate(0,0)" fill="rgb(0,0,0)" d="M 208.667 217.973 C 246.29 215.339 283.816 216.832 320.295 227.621 C 464.905 270.391 486.433 473.503 347.895 542.534 C 360.963 566.871 464.092 740.441 463.739 748.094 C 457.003 750.994 426.964 749.874 418.003 749.815 L 361.476 749.786 C 352.368 736.75 335.463 702.601 326.965 686.569 L 261.897 563.593 C 245.874 563.732 224.43 564.355 208.784 563.222 C 207.461 549.238 208.066 501.716 208.845 487.169 C 241.845 485.588 281.638 492.454 309.612 471.638 C 357.287 436.162 356.414 334.539 300.141 306.479 C 267.512 290.21 242.546 299.766 210.191 294.449 C 206.945 290.165 208.006 227.137 208.667 217.973 z"/>
<path transform="translate(0,0)" fill="rgb(80,110,36)" d="M 215.691 225.168 C 249.866 224.977 273.933 223.297 307.572 231.768 C 400.888 255.268 453.005 344.581 427.138 438.028 C 417.769 472.243 396.775 502.128 367.764 522.545 C 358.661 528.847 347.67 534.43 337.885 539.963 C 347.789 559.125 360.211 578.272 370.657 597.197 C 397.203 645.285 427.834 693.91 453.532 742.222 L 411.5 742.324 L 364.966 742.279 C 361.82 736.026 358.402 729.489 355.028 723.361 C 324.673 668.234 296.864 610.927 266.199 556.056 L 215.759 556.031 C 215.845 535.484 215.789 514.936 215.592 494.39 C 251.809 494.024 295.529 498.878 323.356 470.138 C 360.113 432.175 360.895 351.253 323.02 313.575 C 294.564 285.268 252.409 288.175 215.723 288.547 L 215.691 225.168 z"/>
<path transform="translate(0,0)" fill="rgb(0,0,0)" d="M 967.5 209.385 C 970.899 208.837 978.232 208.709 981.955 208.534 C 982.937 217.569 982.537 232.438 982.518 241.844 C 982.568 259.236 982.447 276.628 982.155 294.018 C 963.135 297.109 949.787 299.992 933.321 311.299 C 899.478 334.538 881.111 379.418 874.58 418.824 C 863.997 482.672 865.645 567.525 904.185 622.795 C 925.148 652.859 946.922 664.37 982.122 670.568 C 983.354 689.831 983.194 734.421 982.097 753.862 C 953.82 752.697 940.221 750.25 913.631 741.132 C 893.566 733.225 874.774 722.407 857.86 709.026 C 802.776 664.98 778.331 598.299 770.286 529.873 C 753.869 390.224 806.505 226.388 967.5 209.385 z"/>
<path transform="translate(0,0)" fill="rgb(80,110,36)" d="M 973.804 216.504 C 973.847 216.537 973.897 216.562 973.931 216.603 C 976.128 219.259 974.973 279.412 974.968 287.638 C 901.487 296.903 870.625 373.738 864.329 438.589 C 857.263 511.37 862.184 602.503 922.429 653.599 C 937.763 666.604 955.111 674.125 974.999 676.473 L 974.958 746.189 C 949.685 745.009 930.812 739.964 907.748 730.49 C 821.674 691.933 783.598 608.372 776.627 518.034 C 770.463 438.163 782.751 349.292 836.135 286.165 C 871.283 244.602 919.753 220.745 973.804 216.504 z"/>
<path transform="translate(0,0)" fill="rgb(0,0,0)" d="M 1410.83 217.921 C 1439.41 216.669 1478.3 217.774 1507.65 217.802 C 1519.78 249.361 1531.71 287.409 1542.96 319.959 L 1608.84 510.565 L 1664.68 672.041 C 1672.73 695.344 1680.71 718.807 1688.94 742.059 C 1690.26 745.778 1689.94 746.41 1688.97 749.63 C 1662.33 750.899 1615.5 750.026 1588.44 749.48 C 1575.68 716.329 1563.37 677.77 1551.9 644.027 L 1492.47 469.142 L 1440.09 312.652 C 1430.5 284.098 1420.68 255.247 1411.4 226.569 C 1410.42 223.54 1410.09 221.079 1410.83 217.921 z"/>
<path transform="translate(0,0)" fill="rgb(80,110,36)" d="M 1419.37 225.288 C 1445.02 224.34 1476.22 225.194 1502.29 225.05 L 1616.18 555.146 L 1660.47 683.482 C 1666.81 702.013 1675.31 723.662 1680.74 742.106 L 1593.74 742.21 C 1578.29 700.215 1563.48 654.787 1548.99 612.244 L 1475.94 395.708 L 1442.25 295.439 C 1436.06 277.421 1423.84 243.493 1419.37 225.288 z"/>
<path transform="translate(0,0)" fill="rgb(0,0,0)" d="M 563.503 218.061 C 590.692 216.462 634.969 217.51 663.235 217.89 C 663.902 255.763 663.256 295.76 663.25 333.829 L 663.219 563.803 L 663.258 686.439 C 663.264 702.93 664.23 734.85 662.674 749.818 C 634.627 750.833 591.445 750.4 563.402 749.721 C 561.909 720.797 563.146 680.829 563.147 651.172 L 563.149 459.569 L 563.158 299.999 C 563.154 276.24 561.893 240.714 563.503 218.061 z"/>
<path transform="translate(0,0)" fill="rgb(80,110,36)" d="M 570.754 225.438 C 598.708 224.748 628.007 225.171 656.059 225.163 L 656.079 563.733 C 656.083 622.488 657.148 683.988 655.937 742.38 L 570.479 742.452 C 571.312 703.338 570.426 660.61 570.447 621.138 L 570.432 360.287 C 570.428 317.731 569.099 267.385 570.754 225.438 z"/>
<path transform="translate(0,0)" fill="rgb(0,0,0)" d="M 96.1409 217.969 C 124.874 216.918 165.016 217.197 193.903 218.036 C 195.279 257.245 194.268 301.738 194.263 341.442 L 194.216 569.936 L 194.257 691.473 C 194.263 704.296 195.159 739.049 193.715 749.713 C 166.064 751.21 124.703 750.051 96.0149 749.834 C 95.0603 723.306 95.8685 691.245 95.8612 664.396 L 95.8537 497.861 L 95.8572 318.879 C 95.8503 286.249 95.1501 250.396 96.1409 217.969 z"/>
<path transform="translate(0,0)" fill="rgb(80,110,36)" d="M 102.98 225.155 L 187.005 225.107 C 186.262 284.532 186.953 345.469 186.966 404.98 L 187.021 742.408 L 103.016 742.313 L 102.98 225.155 z"/>
<path transform="translate(0,0)" fill="rgb(0,0,0)" d="M 1401.2 252.221 C 1402.24 252.412 1405.81 253.214 1406.21 254.421 C 1422.15 302.093 1438.55 349.893 1453.88 397.758 L 1381.33 605.099 C 1364.92 652.584 1348.31 702.768 1330.92 749.767 C 1316.97 750.509 1295.99 749.784 1281.5 749.749 C 1271.08 749.774 1235.84 751.049 1229.01 747.633 C 1228.81 740.42 1262.32 648.465 1267.2 634.484 L 1354.39 384.759 L 1382.67 303.969 C 1388.45 287.336 1394.56 268.217 1401.2 252.221 z"/>
<path transform="translate(0,0)" fill="rgb(80,110,36)" d="M 1402.65 270.746 C 1405.62 273.814 1441.55 384.367 1445.92 397.391 C 1440.42 412.442 1435.08 427.695 1429.91 442.864 C 1395.83 542.777 1359.29 642.208 1325.78 742.284 L 1282.5 742.257 L 1237.92 742.319 C 1242.84 725.296 1251.15 703.674 1257.18 686.487 L 1290.64 590.325 L 1402.65 270.746 z"/>
<path transform="translate(0,0)" fill="rgb(0,0,0)" d="M 997.759 208.203 C 1005.4 208.544 1013.31 209.211 1020.89 209.621 C 1061.21 211.802 1121.92 240.439 1147.56 271.86 C 1140.19 280.567 1123.33 295.011 1114.38 303.091 C 1105.36 311.614 1088.21 328.38 1078.88 335.133 C 1049.83 306.328 1038.41 298.278 996.457 293.234 C 995.789 283.384 994.985 212.691 997.759 208.203 z"/>
<path transform="translate(0,0)" fill="rgb(80,110,36)" d="M 1003.75 215.905 C 1057.91 220.066 1096.72 234.189 1137.39 271.863 C 1129.02 278.713 1118.18 289.209 1109.92 296.779 C 1099.7 306.215 1089.6 315.78 1079.62 325.47 C 1057.3 302.867 1037.19 289.179 1003.92 286.72 C 1003.5 263.422 1003.78 239.27 1003.75 215.905 z"/>
<path transform="translate(0,0)" fill="rgb(0,0,0)" d="M 1076.61 628.571 C 1082.03 628.833 1108.45 654.165 1114.01 659.06 C 1124.36 668.168 1137.03 679.166 1146.63 689.045 C 1128.81 713.643 1088.92 735.338 1060.72 745.121 C 1038.42 752.03 1019.79 754.735 996.672 753.854 C 996.233 727.338 996.084 696.894 996.881 670.494 C 1036.05 666.746 1050.22 655.006 1076.61 628.571 z"/>
<path transform="translate(0,0)" fill="rgb(80,110,36)" d="M 1077.9 637.72 C 1082.83 640.954 1095.92 653.12 1100.67 657.343 C 1112.58 667.93 1125.25 678.775 1136.65 689.836 C 1110.11 715.011 1088.72 727.641 1054.23 739.18 C 1033.87 744.696 1024.91 746.234 1003.98 746.887 L 1003.88 677.274 C 1036.73 674.453 1055.9 660.154 1077.9 637.72 z"/>
<path transform="translate(0,0)" fill="rgb(0,0,0)" d="M 1407.84 570.979 C 1440.52 569.947 1478.9 570.971 1512.04 571.003 C 1515.71 580.284 1534.45 633.114 1534.58 640.06 C 1530.7 643.384 1518.05 642.306 1512.59 642.208 C 1473.68 642.255 1434.65 642.416 1395.75 642.152 C 1391.78 642.125 1387.76 642.403 1385.26 639.779 C 1384.91 633.132 1404.23 580.702 1407.84 570.979 z"/>
<path transform="translate(0,0)" fill="rgb(80,110,36)" d="M 1432.55 578.519 C 1457.02 578.099 1482.25 578.371 1506.78 578.335 C 1513.03 597.283 1519.51 616.16 1526.19 634.961 L 1486.83 634.96 L 1393.83 634.874 C 1400.12 616.079 1406.52 597.322 1413.03 578.604 L 1432.55 578.519 z"/>
</svg>